<mxfile host="app.diagrams.net" agent="Mozilla/5.0 (Windows NT 10.0; Win64; x64) AppleWebKit/537.36 (KHTML, like Gecko) Chrome/126.0.0.0 Safari/537.36 OPR/112.0.0.0" version="24.7.12">
  <diagram name="Page-1" id="94pEMm5gFKQ8uHimB1Q0">
    <mxGraphModel dx="5063" dy="1797" grid="1" gridSize="10" guides="1" tooltips="1" connect="1" arrows="1" fold="1" page="1" pageScale="1" pageWidth="850" pageHeight="1100" math="0" shadow="0">
      <root>
        <mxCell id="0" />
        <mxCell id="1" parent="0" />
        <mxCell id="1lwzedlHz5XzD344m5pe-2" style="edgeStyle=orthogonalEdgeStyle;rounded=0;orthogonalLoop=1;jettySize=auto;html=1;entryX=0.5;entryY=1;entryDx=0;entryDy=0;endArrow=none;endFill=0;strokeWidth=3;startArrow=classic;startFill=1;" parent="1" source="1lwzedlHz5XzD344m5pe-4" target="1lwzedlHz5XzD344m5pe-23" edge="1">
          <mxGeometry relative="1" as="geometry">
            <mxPoint x="-533" y="790" as="targetPoint" />
          </mxGeometry>
        </mxCell>
        <mxCell id="1lwzedlHz5XzD344m5pe-3" style="edgeStyle=orthogonalEdgeStyle;rounded=0;orthogonalLoop=1;jettySize=auto;html=1;endArrow=none;endFill=0;entryX=0;entryY=0.5;entryDx=0;entryDy=0;strokeWidth=3;" parent="1" source="1lwzedlHz5XzD344m5pe-4" target="1lwzedlHz5XzD344m5pe-49" edge="1">
          <mxGeometry relative="1" as="geometry">
            <mxPoint x="-373" y="920.0000000000002" as="targetPoint" />
          </mxGeometry>
        </mxCell>
        <mxCell id="nU3mczTMjZ2SQ8L4C_dF-13" style="edgeStyle=orthogonalEdgeStyle;rounded=0;orthogonalLoop=1;jettySize=auto;html=1;exitX=1;exitY=1;exitDx=0;exitDy=0;entryX=0.5;entryY=0;entryDx=0;entryDy=0;strokeWidth=3;" edge="1" parent="1" source="1lwzedlHz5XzD344m5pe-4" target="1lwzedlHz5XzD344m5pe-43">
          <mxGeometry relative="1" as="geometry" />
        </mxCell>
        <mxCell id="1lwzedlHz5XzD344m5pe-4" value="Libro" style="whiteSpace=wrap;html=1;align=center;fontSize=18;fontStyle=1;strokeWidth=3;" parent="1" vertex="1">
          <mxGeometry x="-583" y="900" width="100" height="40" as="geometry" />
        </mxCell>
        <mxCell id="1lwzedlHz5XzD344m5pe-5" value="ISBN" style="ellipse;whiteSpace=wrap;html=1;align=center;fontStyle=5;strokeWidth=3;fontSize=16;" parent="1" vertex="1">
          <mxGeometry x="-743" y="940" width="100" height="40" as="geometry" />
        </mxCell>
        <mxCell id="1lwzedlHz5XzD344m5pe-6" value="Titulo" style="ellipse;whiteSpace=wrap;html=1;align=center;strokeWidth=3;fontSize=16;fontStyle=1" parent="1" vertex="1">
          <mxGeometry x="-490" y="840" width="100" height="40" as="geometry" />
        </mxCell>
        <mxCell id="1lwzedlHz5XzD344m5pe-7" value="&lt;div&gt;Autor&lt;/div&gt;" style="ellipse;whiteSpace=wrap;html=1;align=center;strokeWidth=3;fontSize=16;fontStyle=1" parent="1" vertex="1">
          <mxGeometry x="-663" y="1010" width="100" height="40" as="geometry" />
        </mxCell>
        <mxCell id="1lwzedlHz5XzD344m5pe-8" value="Número de paginas" style="ellipse;whiteSpace=wrap;html=1;align=center;strokeWidth=3;fontSize=16;fontStyle=1" parent="1" vertex="1">
          <mxGeometry x="-630" y="1080" width="100" height="40" as="geometry" />
        </mxCell>
        <mxCell id="1lwzedlHz5XzD344m5pe-9" value="Año de publicación" style="ellipse;whiteSpace=wrap;html=1;align=center;strokeWidth=3;fontSize=16;fontStyle=1" parent="1" vertex="1">
          <mxGeometry x="-520" y="1080" width="110" height="40" as="geometry" />
        </mxCell>
        <mxCell id="1lwzedlHz5XzD344m5pe-10" value="Ubicación en estante" style="ellipse;whiteSpace=wrap;html=1;align=center;strokeWidth=3;fontSize=16;fontStyle=1" parent="1" vertex="1">
          <mxGeometry x="-663" y="365" width="110" height="50" as="geometry" />
        </mxCell>
        <mxCell id="1lwzedlHz5XzD344m5pe-11" value="&lt;u&gt;Nombre&lt;/u&gt;" style="ellipse;whiteSpace=wrap;html=1;align=center;strokeWidth=3;fontSize=16;fontStyle=1" parent="1" vertex="1">
          <mxGeometry x="-200" y="1210" width="100" height="40" as="geometry" />
        </mxCell>
        <mxCell id="1lwzedlHz5XzD344m5pe-12" value="Ubicación" style="ellipse;whiteSpace=wrap;html=1;align=center;strokeWidth=3;fontSize=16;fontStyle=1" parent="1" vertex="1">
          <mxGeometry x="10" y="1310" width="100" height="40" as="geometry" />
        </mxCell>
        <mxCell id="1lwzedlHz5XzD344m5pe-13" value="Calle" style="ellipse;whiteSpace=wrap;html=1;align=center;strokeWidth=3;fontSize=16;fontStyle=1" parent="1" vertex="1">
          <mxGeometry x="-200" y="1360" width="100" height="40" as="geometry" />
        </mxCell>
        <mxCell id="1lwzedlHz5XzD344m5pe-14" value="Número exterior" style="ellipse;whiteSpace=wrap;html=1;align=center;strokeWidth=3;fontSize=16;fontStyle=1" parent="1" vertex="1">
          <mxGeometry x="-90" y="1410" width="100" height="40" as="geometry" />
        </mxCell>
        <mxCell id="1lwzedlHz5XzD344m5pe-15" value="Numero interior" style="ellipse;whiteSpace=wrap;html=1;align=center;strokeWidth=3;fontSize=16;fontStyle=1" parent="1" vertex="1">
          <mxGeometry x="60" y="1420" width="100" height="40" as="geometry" />
        </mxCell>
        <mxCell id="1lwzedlHz5XzD344m5pe-16" value="Provincia" style="ellipse;whiteSpace=wrap;html=1;align=center;strokeWidth=3;fontSize=16;fontStyle=1" parent="1" vertex="1">
          <mxGeometry x="180" y="1370" width="100" height="40" as="geometry" />
        </mxCell>
        <mxCell id="1lwzedlHz5XzD344m5pe-17" value="&lt;font size=&quot;1&quot; style=&quot;&quot;&gt;&lt;b style=&quot;font-size: 18px;&quot;&gt;Copia&lt;/b&gt;&lt;/font&gt;" style="shape=ext;margin=3;double=1;whiteSpace=wrap;html=1;align=center;strokeWidth=2;" parent="1" vertex="1">
          <mxGeometry x="-598" y="450" width="130" height="50" as="geometry" />
        </mxCell>
        <mxCell id="1lwzedlHz5XzD344m5pe-18" value="" style="group" parent="1" vertex="1" connectable="0">
          <mxGeometry x="-513" y="375" width="110" height="40" as="geometry" />
        </mxCell>
        <mxCell id="1lwzedlHz5XzD344m5pe-19" value="Número de copia" style="ellipse;whiteSpace=wrap;html=1;align=center;strokeWidth=3;fontSize=16;fontStyle=1" parent="1lwzedlHz5XzD344m5pe-18" vertex="1">
          <mxGeometry width="110" height="40" as="geometry" />
        </mxCell>
        <mxCell id="1lwzedlHz5XzD344m5pe-20" value="" style="endArrow=none;dashed=1;html=1;strokeWidth=2;rounded=0;" parent="1lwzedlHz5XzD344m5pe-18" edge="1">
          <mxGeometry width="50" height="50" relative="1" as="geometry">
            <mxPoint x="15" y="19.409999999999968" as="sourcePoint" />
            <mxPoint x="95" y="19.409999999999968" as="targetPoint" />
          </mxGeometry>
        </mxCell>
        <mxCell id="1lwzedlHz5XzD344m5pe-21" value="" style="endArrow=none;dashed=1;html=1;strokeWidth=2;rounded=0;" parent="1lwzedlHz5XzD344m5pe-18" edge="1">
          <mxGeometry width="50" height="50" relative="1" as="geometry">
            <mxPoint x="27.5" y="40" as="sourcePoint" />
            <mxPoint x="82.5" y="35.59000000000003" as="targetPoint" />
          </mxGeometry>
        </mxCell>
        <mxCell id="1lwzedlHz5XzD344m5pe-22" style="edgeStyle=orthogonalEdgeStyle;rounded=0;orthogonalLoop=1;jettySize=auto;html=1;entryX=0.5;entryY=1;entryDx=0;entryDy=0;endArrow=none;endFill=0;strokeWidth=3;" parent="1" source="1lwzedlHz5XzD344m5pe-23" target="1lwzedlHz5XzD344m5pe-17" edge="1">
          <mxGeometry relative="1" as="geometry" />
        </mxCell>
        <mxCell id="1lwzedlHz5XzD344m5pe-23" value="&lt;font style=&quot;font-size: 18px;&quot;&gt;&lt;b&gt;Tener&lt;/b&gt;&lt;/font&gt;" style="shape=rhombus;double=1;perimeter=rhombusPerimeter;whiteSpace=wrap;html=1;align=center;strokeWidth=2;" parent="1" vertex="1">
          <mxGeometry x="-593" y="670" width="120" height="60" as="geometry" />
        </mxCell>
        <mxCell id="1lwzedlHz5XzD344m5pe-24" value="Editorial" style="whiteSpace=wrap;html=1;align=center;fontSize=18;fontStyle=1;strokeWidth=3;" parent="1" vertex="1">
          <mxGeometry x="20" y="1200" width="100" height="40" as="geometry" />
        </mxCell>
        <mxCell id="1lwzedlHz5XzD344m5pe-25" value="Categoria" style="whiteSpace=wrap;html=1;align=center;fontSize=18;fontStyle=1;strokeWidth=3;" parent="1" vertex="1">
          <mxGeometry x="40" y="630" width="100" height="40" as="geometry" />
        </mxCell>
        <mxCell id="1lwzedlHz5XzD344m5pe-26" style="edgeStyle=orthogonalEdgeStyle;rounded=0;orthogonalLoop=1;jettySize=auto;html=1;exitX=0.5;exitY=1;exitDx=0;exitDy=0;entryX=0.5;entryY=1;entryDx=0;entryDy=0;endArrow=none;endFill=0;strokeWidth=3;" parent="1" source="1lwzedlHz5XzD344m5pe-30" target="1lwzedlHz5XzD344m5pe-25" edge="1">
          <mxGeometry relative="1" as="geometry">
            <mxPoint x="147" y="960.0000000000002" as="sourcePoint" />
          </mxGeometry>
        </mxCell>
        <mxCell id="1lwzedlHz5XzD344m5pe-27" value="nombre" style="ellipse;whiteSpace=wrap;html=1;align=center;strokeWidth=3;fontSize=16;fontStyle=1" parent="1" vertex="1">
          <mxGeometry x="10" y="710" width="100" height="40" as="geometry" />
        </mxCell>
        <mxCell id="1lwzedlHz5XzD344m5pe-28" style="edgeStyle=none;rounded=0;orthogonalLoop=1;jettySize=auto;html=1;exitX=0.25;exitY=1;exitDx=0;exitDy=0;entryX=0.723;entryY=0.107;entryDx=0;entryDy=0;startArrow=none;startFill=0;endArrow=none;endFill=0;strokeWidth=3;fontSize=16;entryPerimeter=0;" parent="1" source="1lwzedlHz5XzD344m5pe-25" target="1lwzedlHz5XzD344m5pe-27" edge="1">
          <mxGeometry relative="1" as="geometry">
            <mxPoint x="-193" y="940" as="sourcePoint" />
            <mxPoint x="-148" y="970" as="targetPoint" />
          </mxGeometry>
        </mxCell>
        <mxCell id="1lwzedlHz5XzD344m5pe-29" style="edgeStyle=orthogonalEdgeStyle;rounded=0;orthogonalLoop=1;jettySize=auto;html=1;exitX=0.5;exitY=0;exitDx=0;exitDy=0;entryX=0.5;entryY=0;entryDx=0;entryDy=0;endArrow=classic;endFill=1;strokeWidth=3;" parent="1" source="1lwzedlHz5XzD344m5pe-30" target="1lwzedlHz5XzD344m5pe-25" edge="1">
          <mxGeometry relative="1" as="geometry" />
        </mxCell>
        <mxCell id="1lwzedlHz5XzD344m5pe-30" value="tener" style="shape=rhombus;perimeter=rhombusPerimeter;whiteSpace=wrap;html=1;align=center;strokeWidth=3;fontSize=18;fontStyle=1" parent="1" vertex="1">
          <mxGeometry x="490" y="610" width="120" height="60" as="geometry" />
        </mxCell>
        <mxCell id="1lwzedlHz5XzD344m5pe-31" value="Nombre Completo" style="ellipse;whiteSpace=wrap;html=1;align=center;strokeWidth=3;fontSize=16;fontStyle=1" parent="1" vertex="1">
          <mxGeometry x="-1290" y="850" width="100" height="40" as="geometry" />
        </mxCell>
        <mxCell id="1lwzedlHz5XzD344m5pe-32" value="Nombre&amp;nbsp;" style="ellipse;whiteSpace=wrap;html=1;align=center;strokeWidth=3;fontSize=16;fontStyle=1" parent="1" vertex="1">
          <mxGeometry x="-1430" y="750" width="100" height="40" as="geometry" />
        </mxCell>
        <mxCell id="1lwzedlHz5XzD344m5pe-33" value="Apellido Materno" style="ellipse;whiteSpace=wrap;html=1;align=center;strokeWidth=3;fontSize=16;fontStyle=1" parent="1" vertex="1">
          <mxGeometry x="-1470" y="860" width="100" height="40" as="geometry" />
        </mxCell>
        <mxCell id="1lwzedlHz5XzD344m5pe-34" value="Apellido Paterno" style="ellipse;whiteSpace=wrap;html=1;align=center;strokeWidth=3;fontSize=16;fontStyle=1" parent="1" vertex="1">
          <mxGeometry x="-1430" y="940" width="100" height="40" as="geometry" />
        </mxCell>
        <mxCell id="1lwzedlHz5XzD344m5pe-35" value="Direccion" style="ellipse;whiteSpace=wrap;html=1;align=center;strokeWidth=3;fontSize=16;fontStyle=1" parent="1" vertex="1">
          <mxGeometry x="-1100" y="790" width="100" height="40" as="geometry" />
        </mxCell>
        <mxCell id="1lwzedlHz5XzD344m5pe-36" value="Calle" style="ellipse;whiteSpace=wrap;html=1;align=center;strokeWidth=3;fontSize=16;fontStyle=1" parent="1" vertex="1">
          <mxGeometry x="-1130" y="660" width="100" height="40" as="geometry" />
        </mxCell>
        <mxCell id="1lwzedlHz5XzD344m5pe-37" value="Número exterior" style="ellipse;whiteSpace=wrap;html=1;align=center;strokeWidth=3;fontSize=16;fontStyle=1" parent="1" vertex="1">
          <mxGeometry x="-1240" y="680" width="100" height="40" as="geometry" />
        </mxCell>
        <mxCell id="1lwzedlHz5XzD344m5pe-38" value="Numero interior" style="ellipse;whiteSpace=wrap;html=1;align=center;strokeWidth=3;fontSize=16;fontStyle=1" parent="1" vertex="1">
          <mxGeometry x="-1000" y="680" width="100" height="40" as="geometry" />
        </mxCell>
        <mxCell id="1lwzedlHz5XzD344m5pe-39" value="Fecha de nacimiento" style="ellipse;whiteSpace=wrap;html=1;align=center;strokeWidth=3;fontSize=16;fontStyle=1" parent="1" vertex="1">
          <mxGeometry x="-1230" y="980" width="100" height="40" as="geometry" />
        </mxCell>
        <mxCell id="1lwzedlHz5XzD344m5pe-40" value="Edad" style="ellipse;whiteSpace=wrap;html=1;align=center;strokeWidth=3;fontSize=16;fontStyle=1;dashed=1;" parent="1" vertex="1">
          <mxGeometry x="-1130" y="1020" width="100" height="40" as="geometry" />
        </mxCell>
        <mxCell id="1lwzedlHz5XzD344m5pe-41" value="Número de lector" style="ellipse;whiteSpace=wrap;html=1;align=center;fontStyle=5;strokeWidth=3;fontSize=16;" parent="1" vertex="1">
          <mxGeometry x="-1030" y="990" width="100" height="40" as="geometry" />
        </mxCell>
        <mxCell id="1lwzedlHz5XzD344m5pe-42" style="edgeStyle=orthogonalEdgeStyle;rounded=0;orthogonalLoop=1;jettySize=auto;html=1;entryX=0.5;entryY=0;entryDx=0;entryDy=0;endArrow=classic;endFill=1;strokeWidth=3;" parent="1" source="1lwzedlHz5XzD344m5pe-43" target="1lwzedlHz5XzD344m5pe-24" edge="1">
          <mxGeometry relative="1" as="geometry" />
        </mxCell>
        <mxCell id="nU3mczTMjZ2SQ8L4C_dF-71" style="edgeStyle=orthogonalEdgeStyle;rounded=0;orthogonalLoop=1;jettySize=auto;html=1;entryX=1;entryY=0.5;entryDx=0;entryDy=0;strokeWidth=3;exitX=0;exitY=0.5;exitDx=0;exitDy=0;" edge="1" parent="1" source="nU3mczTMjZ2SQ8L4C_dF-43" target="1lwzedlHz5XzD344m5pe-43">
          <mxGeometry relative="1" as="geometry">
            <mxPoint x="200" y="1180" as="sourcePoint" />
          </mxGeometry>
        </mxCell>
        <mxCell id="1lwzedlHz5XzD344m5pe-43" value="Publicar" style="shape=rhombus;perimeter=rhombusPerimeter;whiteSpace=wrap;html=1;align=center;strokeWidth=3;fontSize=18;fontStyle=1" parent="1" vertex="1">
          <mxGeometry x="10" y="1050" width="120" height="60" as="geometry" />
        </mxCell>
        <mxCell id="nU3mczTMjZ2SQ8L4C_dF-22" style="edgeStyle=orthogonalEdgeStyle;rounded=0;orthogonalLoop=1;jettySize=auto;html=1;exitX=0.5;exitY=1;exitDx=0;exitDy=0;entryX=0.5;entryY=0;entryDx=0;entryDy=0;strokeColor=default;strokeWidth=3;align=center;verticalAlign=middle;fontFamily=Helvetica;fontSize=16;fontColor=default;labelBackgroundColor=default;startArrow=none;startFill=0;endArrow=none;endFill=0;" edge="1" parent="1" source="1lwzedlHz5XzD344m5pe-46" target="1lwzedlHz5XzD344m5pe-76">
          <mxGeometry relative="1" as="geometry" />
        </mxCell>
        <mxCell id="1lwzedlHz5XzD344m5pe-46" value="Fecha de devolcuión" style="ellipse;whiteSpace=wrap;html=1;align=center;strokeWidth=3;fontSize=16;fontStyle=1" parent="1" vertex="1">
          <mxGeometry x="-860" y="770" width="100" height="40" as="geometry" />
        </mxCell>
        <mxCell id="1lwzedlHz5XzD344m5pe-48" value="" style="edgeStyle=orthogonalEdgeStyle;rounded=0;orthogonalLoop=1;jettySize=auto;html=1;endArrow=none;endFill=0;strokeWidth=3;" parent="1" source="1lwzedlHz5XzD344m5pe-49" target="1lwzedlHz5XzD344m5pe-25" edge="1">
          <mxGeometry relative="1" as="geometry" />
        </mxCell>
        <mxCell id="nU3mczTMjZ2SQ8L4C_dF-72" style="edgeStyle=orthogonalEdgeStyle;rounded=0;orthogonalLoop=1;jettySize=auto;html=1;exitX=0;exitY=0;exitDx=0;exitDy=0;strokeWidth=4;entryX=0.5;entryY=1;entryDx=0;entryDy=0;" edge="1" parent="1" source="nU3mczTMjZ2SQ8L4C_dF-43" target="1lwzedlHz5XzD344m5pe-49">
          <mxGeometry relative="1" as="geometry">
            <mxPoint x="190" y="970" as="targetPoint" />
          </mxGeometry>
        </mxCell>
        <mxCell id="1lwzedlHz5XzD344m5pe-49" value="Asignar" style="shape=rhombus;perimeter=rhombusPerimeter;whiteSpace=wrap;html=1;align=center;strokeWidth=3;fontSize=18;fontStyle=1" parent="1" vertex="1">
          <mxGeometry x="-130" y="620" width="120" height="60" as="geometry" />
        </mxCell>
        <mxCell id="1lwzedlHz5XzD344m5pe-50" style="edgeStyle=none;rounded=0;orthogonalLoop=1;jettySize=auto;html=1;exitX=0.75;exitY=1;exitDx=0;exitDy=0;entryX=0.5;entryY=0;entryDx=0;entryDy=0;startArrow=none;startFill=0;endArrow=none;endFill=0;strokeWidth=3;fontSize=16;" parent="1" source="1lwzedlHz5XzD344m5pe-4" target="1lwzedlHz5XzD344m5pe-9" edge="1">
          <mxGeometry relative="1" as="geometry">
            <mxPoint x="-473" y="950" as="sourcePoint" />
            <mxPoint x="-428" y="980" as="targetPoint" />
          </mxGeometry>
        </mxCell>
        <mxCell id="1lwzedlHz5XzD344m5pe-51" style="edgeStyle=none;rounded=0;orthogonalLoop=1;jettySize=auto;html=1;exitX=0.441;exitY=1.017;exitDx=0;exitDy=0;entryX=1;entryY=0;entryDx=0;entryDy=0;startArrow=none;startFill=0;endArrow=none;endFill=0;strokeWidth=3;fontSize=16;exitPerimeter=0;" parent="1" source="1lwzedlHz5XzD344m5pe-6" target="1lwzedlHz5XzD344m5pe-4" edge="1">
          <mxGeometry relative="1" as="geometry">
            <mxPoint x="-433" y="855" as="sourcePoint" />
            <mxPoint x="-388" y="885" as="targetPoint" />
          </mxGeometry>
        </mxCell>
        <mxCell id="1lwzedlHz5XzD344m5pe-52" style="edgeStyle=none;rounded=0;orthogonalLoop=1;jettySize=auto;html=1;exitX=0.441;exitY=1.017;exitDx=0;exitDy=0;entryX=0.5;entryY=0;entryDx=0;entryDy=0;startArrow=none;startFill=0;endArrow=none;endFill=0;strokeWidth=3;fontSize=16;exitPerimeter=0;" parent="1" target="1lwzedlHz5XzD344m5pe-7" edge="1">
          <mxGeometry relative="1" as="geometry">
            <mxPoint x="-561" y="940" as="sourcePoint" />
            <mxPoint x="-625" y="999" as="targetPoint" />
          </mxGeometry>
        </mxCell>
        <mxCell id="1lwzedlHz5XzD344m5pe-53" style="edgeStyle=none;rounded=0;orthogonalLoop=1;jettySize=auto;html=1;exitX=0;exitY=0.75;exitDx=0;exitDy=0;entryX=1;entryY=0;entryDx=0;entryDy=0;startArrow=none;startFill=0;endArrow=none;endFill=0;strokeWidth=3;fontSize=16;" parent="1" source="1lwzedlHz5XzD344m5pe-4" target="1lwzedlHz5XzD344m5pe-5" edge="1">
          <mxGeometry relative="1" as="geometry">
            <mxPoint x="-553" y="880" as="sourcePoint" />
            <mxPoint x="-605" y="950" as="targetPoint" />
          </mxGeometry>
        </mxCell>
        <mxCell id="1lwzedlHz5XzD344m5pe-54" style="edgeStyle=none;rounded=0;orthogonalLoop=1;jettySize=auto;html=1;exitX=0.5;exitY=0;exitDx=0;exitDy=0;entryX=0.5;entryY=1;entryDx=0;entryDy=0;startArrow=none;startFill=0;endArrow=none;endFill=0;strokeWidth=3;fontSize=16;" parent="1" source="1lwzedlHz5XzD344m5pe-8" edge="1" target="1lwzedlHz5XzD344m5pe-4">
          <mxGeometry relative="1" as="geometry">
            <mxPoint x="-628" y="850" as="sourcePoint" />
            <mxPoint x="-563" y="900" as="targetPoint" />
          </mxGeometry>
        </mxCell>
        <mxCell id="1lwzedlHz5XzD344m5pe-55" style="edgeStyle=none;rounded=0;orthogonalLoop=1;jettySize=auto;html=1;startArrow=none;startFill=0;endArrow=none;endFill=0;strokeWidth=3;fontSize=16;entryX=0.5;entryY=0;entryDx=0;entryDy=0;" parent="1" edge="1" target="1lwzedlHz5XzD344m5pe-17">
          <mxGeometry relative="1" as="geometry">
            <mxPoint x="-453" y="400" as="sourcePoint" />
            <mxPoint x="-490" y="470" as="targetPoint" />
          </mxGeometry>
        </mxCell>
        <mxCell id="1lwzedlHz5XzD344m5pe-56" style="edgeStyle=none;rounded=0;orthogonalLoop=1;jettySize=auto;html=1;startArrow=none;startFill=0;endArrow=none;endFill=0;strokeWidth=3;fontSize=16;" parent="1" edge="1" target="1lwzedlHz5XzD344m5pe-17">
          <mxGeometry relative="1" as="geometry">
            <mxPoint x="-590" y="410" as="sourcePoint" />
            <mxPoint x="-553" y="480" as="targetPoint" />
          </mxGeometry>
        </mxCell>
        <mxCell id="1lwzedlHz5XzD344m5pe-57" style="edgeStyle=none;rounded=0;orthogonalLoop=1;jettySize=auto;html=1;exitX=0;exitY=0.5;exitDx=0;exitDy=0;entryX=1;entryY=0.5;entryDx=0;entryDy=0;startArrow=none;startFill=0;endArrow=none;endFill=0;strokeWidth=3;fontSize=16;" parent="1" source="1lwzedlHz5XzD344m5pe-24" target="1lwzedlHz5XzD344m5pe-11" edge="1">
          <mxGeometry relative="1" as="geometry">
            <mxPoint x="-571" y="1330" as="sourcePoint" />
            <mxPoint x="-623" y="1400" as="targetPoint" />
          </mxGeometry>
        </mxCell>
        <mxCell id="1lwzedlHz5XzD344m5pe-58" style="edgeStyle=none;rounded=0;orthogonalLoop=1;jettySize=auto;html=1;exitX=0.5;exitY=1;exitDx=0;exitDy=0;startArrow=none;startFill=0;endArrow=none;endFill=0;strokeWidth=3;fontSize=16;entryX=0.5;entryY=0;entryDx=0;entryDy=0;" parent="1" source="1lwzedlHz5XzD344m5pe-24" target="1lwzedlHz5XzD344m5pe-12" edge="1">
          <mxGeometry relative="1" as="geometry">
            <mxPoint x="-431" y="1390" as="sourcePoint" />
            <mxPoint x="70" y="1300" as="targetPoint" />
          </mxGeometry>
        </mxCell>
        <mxCell id="1lwzedlHz5XzD344m5pe-59" style="edgeStyle=none;rounded=0;orthogonalLoop=1;jettySize=auto;html=1;exitX=1;exitY=0.5;exitDx=0;exitDy=0;startArrow=none;startFill=0;endArrow=none;endFill=0;strokeWidth=3;fontSize=16;entryX=0;entryY=0;entryDx=0;entryDy=0;" parent="1" source="1lwzedlHz5XzD344m5pe-12" target="1lwzedlHz5XzD344m5pe-16" edge="1">
          <mxGeometry relative="1" as="geometry">
            <mxPoint x="-403" y="1426" as="sourcePoint" />
            <mxPoint x="-333" y="1450" as="targetPoint" />
          </mxGeometry>
        </mxCell>
        <mxCell id="1lwzedlHz5XzD344m5pe-60" style="edgeStyle=none;rounded=0;orthogonalLoop=1;jettySize=auto;html=1;exitX=0.65;exitY=1;exitDx=0;exitDy=0;startArrow=none;startFill=0;endArrow=none;endFill=0;strokeWidth=3;fontSize=16;entryX=0.5;entryY=0;entryDx=0;entryDy=0;entryPerimeter=0;exitPerimeter=0;" parent="1" source="1lwzedlHz5XzD344m5pe-12" target="1lwzedlHz5XzD344m5pe-15" edge="1">
          <mxGeometry relative="1" as="geometry">
            <mxPoint x="-431.5" y="1442" as="sourcePoint" />
            <mxPoint x="-394.5" y="1510" as="targetPoint" />
          </mxGeometry>
        </mxCell>
        <mxCell id="1lwzedlHz5XzD344m5pe-61" style="edgeStyle=none;rounded=0;orthogonalLoop=1;jettySize=auto;html=1;exitX=0.379;exitY=0.991;exitDx=0;exitDy=0;startArrow=none;startFill=0;endArrow=none;endFill=0;strokeWidth=3;fontSize=16;entryX=0.5;entryY=0;entryDx=0;entryDy=0;exitPerimeter=0;" parent="1" source="1lwzedlHz5XzD344m5pe-12" target="1lwzedlHz5XzD344m5pe-14" edge="1">
          <mxGeometry relative="1" as="geometry">
            <mxPoint x="-493" y="1455" as="sourcePoint" />
            <mxPoint x="-433" y="1525" as="targetPoint" />
          </mxGeometry>
        </mxCell>
        <mxCell id="1lwzedlHz5XzD344m5pe-62" style="edgeStyle=none;rounded=0;orthogonalLoop=1;jettySize=auto;html=1;exitX=0.006;exitY=0.68;exitDx=0;exitDy=0;startArrow=none;startFill=0;endArrow=none;endFill=0;strokeWidth=3;fontSize=16;entryX=0.735;entryY=0.091;entryDx=0;entryDy=0;exitPerimeter=0;entryPerimeter=0;" parent="1" source="1lwzedlHz5XzD344m5pe-12" target="1lwzedlHz5XzD344m5pe-13" edge="1">
          <mxGeometry relative="1" as="geometry">
            <mxPoint x="-550" y="1410" as="sourcePoint" />
            <mxPoint x="-563" y="1485" as="targetPoint" />
          </mxGeometry>
        </mxCell>
        <mxCell id="1lwzedlHz5XzD344m5pe-63" style="edgeStyle=none;rounded=0;orthogonalLoop=1;jettySize=auto;html=1;exitX=0.75;exitY=1;exitDx=0;exitDy=0;startArrow=none;startFill=0;endArrow=none;endFill=0;strokeWidth=3;fontSize=16;entryX=0.5;entryY=0;entryDx=0;entryDy=0;" parent="1" target="1lwzedlHz5XzD344m5pe-41" edge="1" source="1lwzedlHz5XzD344m5pe-78">
          <mxGeometry relative="1" as="geometry">
            <mxPoint x="-1101.7000000000003" y="948.1999999999998" as="sourcePoint" />
            <mxPoint x="-1070" y="1018" as="targetPoint" />
          </mxGeometry>
        </mxCell>
        <mxCell id="1lwzedlHz5XzD344m5pe-64" style="edgeStyle=none;rounded=0;orthogonalLoop=1;jettySize=auto;html=1;exitX=0.5;exitY=1;exitDx=0;exitDy=0;startArrow=none;startFill=0;endArrow=none;endFill=0;strokeWidth=3;fontSize=16;entryX=0.5;entryY=0;entryDx=0;entryDy=0;" parent="1" target="1lwzedlHz5XzD344m5pe-40" edge="1" source="1lwzedlHz5XzD344m5pe-78">
          <mxGeometry relative="1" as="geometry">
            <mxPoint x="-1120" y="950" as="sourcePoint" />
            <mxPoint x="-1028" y="1002" as="targetPoint" />
          </mxGeometry>
        </mxCell>
        <mxCell id="1lwzedlHz5XzD344m5pe-65" style="edgeStyle=none;rounded=0;orthogonalLoop=1;jettySize=auto;html=1;startArrow=none;startFill=0;endArrow=none;endFill=0;strokeWidth=3;fontSize=16;entryX=0.599;entryY=0.071;entryDx=0;entryDy=0;entryPerimeter=0;exitX=0;exitY=0.5;exitDx=0;exitDy=0;" parent="1" target="1lwzedlHz5XzD344m5pe-39" edge="1" source="1lwzedlHz5XzD344m5pe-78">
          <mxGeometry relative="1" as="geometry">
            <mxPoint x="-1160" y="940" as="sourcePoint" />
            <mxPoint x="-1120" y="1040" as="targetPoint" />
          </mxGeometry>
        </mxCell>
        <mxCell id="1lwzedlHz5XzD344m5pe-66" style="edgeStyle=none;rounded=0;orthogonalLoop=1;jettySize=auto;html=1;startArrow=none;startFill=0;endArrow=none;endFill=0;strokeWidth=3;fontSize=16;entryX=1;entryY=0.5;entryDx=0;entryDy=0;exitX=0.25;exitY=0;exitDx=0;exitDy=0;" parent="1" target="1lwzedlHz5XzD344m5pe-31" edge="1" source="1lwzedlHz5XzD344m5pe-78">
          <mxGeometry relative="1" as="geometry">
            <mxPoint x="-1150" y="890" as="sourcePoint" />
            <mxPoint x="-1257" y="980" as="targetPoint" />
          </mxGeometry>
        </mxCell>
        <mxCell id="1lwzedlHz5XzD344m5pe-67" style="edgeStyle=none;rounded=0;orthogonalLoop=1;jettySize=auto;html=1;startArrow=none;startFill=0;endArrow=none;endFill=0;strokeWidth=3;fontSize=16;entryX=0.5;entryY=0;entryDx=0;entryDy=0;exitX=0.5;exitY=1;exitDx=0;exitDy=0;" parent="1" target="1lwzedlHz5XzD344m5pe-34" edge="1" source="1lwzedlHz5XzD344m5pe-31">
          <mxGeometry relative="1" as="geometry">
            <mxPoint x="-1310" y="930.0000000000002" as="sourcePoint" />
            <mxPoint x="-1333.5" y="1012" as="targetPoint" />
          </mxGeometry>
        </mxCell>
        <mxCell id="1lwzedlHz5XzD344m5pe-68" style="edgeStyle=none;rounded=0;orthogonalLoop=1;jettySize=auto;html=1;startArrow=none;startFill=0;endArrow=none;endFill=0;strokeWidth=3;fontSize=16;entryX=0.699;entryY=0.078;entryDx=0;entryDy=0;exitX=0;exitY=1;exitDx=0;exitDy=0;entryPerimeter=0;" parent="1" target="1lwzedlHz5XzD344m5pe-33" edge="1" source="1lwzedlHz5XzD344m5pe-31">
          <mxGeometry relative="1" as="geometry">
            <mxPoint x="-1345.1677815203611" y="924.2167627422737" as="sourcePoint" />
            <mxPoint x="-1390" y="990" as="targetPoint" />
          </mxGeometry>
        </mxCell>
        <mxCell id="1lwzedlHz5XzD344m5pe-69" style="edgeStyle=none;rounded=0;orthogonalLoop=1;jettySize=auto;html=1;startArrow=none;startFill=0;endArrow=none;endFill=0;strokeWidth=3;fontSize=16;entryX=1;entryY=0.5;entryDx=0;entryDy=0;exitX=0;exitY=0;exitDx=0;exitDy=0;" parent="1" target="1lwzedlHz5XzD344m5pe-32" edge="1" source="1lwzedlHz5XzD344m5pe-31">
          <mxGeometry relative="1" as="geometry">
            <mxPoint x="-1359.999999999995" y="910.0000000000002" as="sourcePoint" />
            <mxPoint x="-1462.5" y="979" as="targetPoint" />
          </mxGeometry>
        </mxCell>
        <mxCell id="1lwzedlHz5XzD344m5pe-70" style="edgeStyle=none;rounded=0;orthogonalLoop=1;jettySize=auto;html=1;exitX=0.5;exitY=0;exitDx=0;exitDy=0;startArrow=none;startFill=0;endArrow=none;endFill=0;strokeWidth=3;fontSize=16;entryX=0.5;entryY=1;entryDx=0;entryDy=0;" parent="1" edge="1" target="1lwzedlHz5XzD344m5pe-35" source="1lwzedlHz5XzD344m5pe-78">
          <mxGeometry relative="1" as="geometry">
            <mxPoint x="-1120" y="910" as="sourcePoint" />
            <mxPoint x="-1140" y="830" as="targetPoint" />
          </mxGeometry>
        </mxCell>
        <mxCell id="1lwzedlHz5XzD344m5pe-71" style="edgeStyle=none;rounded=0;orthogonalLoop=1;jettySize=auto;html=1;exitX=0.433;exitY=0.079;exitDx=0;exitDy=0;startArrow=none;startFill=0;endArrow=none;endFill=0;strokeWidth=3;fontSize=16;entryX=0.641;entryY=1.009;entryDx=0;entryDy=0;entryPerimeter=0;exitPerimeter=0;" parent="1" source="1lwzedlHz5XzD344m5pe-35" target="1lwzedlHz5XzD344m5pe-36" edge="1">
          <mxGeometry relative="1" as="geometry">
            <mxPoint x="-1140" y="790" as="sourcePoint" />
            <mxPoint x="-1160" y="710" as="targetPoint" />
            <Array as="points" />
          </mxGeometry>
        </mxCell>
        <mxCell id="1lwzedlHz5XzD344m5pe-72" style="edgeStyle=none;rounded=0;orthogonalLoop=1;jettySize=auto;html=1;exitX=1;exitY=0;exitDx=0;exitDy=0;startArrow=none;startFill=0;endArrow=none;endFill=0;strokeWidth=3;fontSize=16;entryX=0.333;entryY=1.024;entryDx=0;entryDy=0;entryPerimeter=0;" parent="1" source="1lwzedlHz5XzD344m5pe-35" target="1lwzedlHz5XzD344m5pe-38" edge="1">
          <mxGeometry relative="1" as="geometry">
            <mxPoint x="-1081" y="830" as="sourcePoint" />
            <mxPoint x="-1120" y="737" as="targetPoint" />
          </mxGeometry>
        </mxCell>
        <mxCell id="1lwzedlHz5XzD344m5pe-73" style="edgeStyle=none;rounded=0;orthogonalLoop=1;jettySize=auto;html=1;exitX=0;exitY=0.5;exitDx=0;exitDy=0;startArrow=none;startFill=0;endArrow=none;endFill=0;strokeWidth=3;fontSize=16;entryX=1;entryY=1;entryDx=0;entryDy=0;" parent="1" source="1lwzedlHz5XzD344m5pe-35" target="1lwzedlHz5XzD344m5pe-37" edge="1">
          <mxGeometry relative="1" as="geometry">
            <mxPoint x="-1260" y="845" as="sourcePoint" />
            <mxPoint x="-1212" y="780" as="targetPoint" />
          </mxGeometry>
        </mxCell>
        <mxCell id="1lwzedlHz5XzD344m5pe-76" value="&lt;font style=&quot;font-size: 18px;&quot;&gt;&lt;b&gt;Prestar&lt;/b&gt;&lt;/font&gt;" style="shape=rhombus;double=1;perimeter=rhombusPerimeter;whiteSpace=wrap;html=1;align=center;strokeWidth=2;" parent="1" vertex="1">
          <mxGeometry x="-870" y="890" width="120" height="60" as="geometry" />
        </mxCell>
        <mxCell id="1lwzedlHz5XzD344m5pe-78" value="Lector" style="whiteSpace=wrap;html=1;align=center;fontSize=18;fontStyle=1;strokeWidth=3;" parent="1" vertex="1">
          <mxGeometry x="-1100" y="880" width="100" height="40" as="geometry" />
        </mxCell>
        <mxCell id="nU3mczTMjZ2SQ8L4C_dF-1" value="" style="endArrow=none;html=1;rounded=0;exitX=1;exitY=0.5;exitDx=0;exitDy=0;strokeColor=default;strokeWidth=3;align=center;verticalAlign=middle;fontFamily=Helvetica;fontSize=16;fontColor=default;labelBackgroundColor=default;startArrow=none;startFill=0;endFill=0;" edge="1" parent="1" source="1lwzedlHz5XzD344m5pe-76">
          <mxGeometry width="50" height="50" relative="1" as="geometry">
            <mxPoint x="-730" y="910" as="sourcePoint" />
            <mxPoint x="-590" y="920" as="targetPoint" />
          </mxGeometry>
        </mxCell>
        <mxCell id="nU3mczTMjZ2SQ8L4C_dF-2" value="" style="endArrow=none;html=1;rounded=0;entryX=0;entryY=0.5;entryDx=0;entryDy=0;exitX=1;exitY=0.5;exitDx=0;exitDy=0;strokeColor=default;strokeWidth=3;align=center;verticalAlign=middle;fontFamily=Helvetica;fontSize=16;fontColor=default;labelBackgroundColor=default;startArrow=none;startFill=0;endFill=0;" edge="1" parent="1" source="1lwzedlHz5XzD344m5pe-78" target="1lwzedlHz5XzD344m5pe-76">
          <mxGeometry width="50" height="50" relative="1" as="geometry">
            <mxPoint x="-990" y="955" as="sourcePoint" />
            <mxPoint x="-940" y="905" as="targetPoint" />
          </mxGeometry>
        </mxCell>
        <mxCell id="nU3mczTMjZ2SQ8L4C_dF-43" value="Revista" style="whiteSpace=wrap;html=1;align=center;fontSize=18;fontStyle=1;strokeWidth=3;" vertex="1" parent="1">
          <mxGeometry x="375" y="1140" width="100" height="40" as="geometry" />
        </mxCell>
        <mxCell id="nU3mczTMjZ2SQ8L4C_dF-44" value="Nombre" style="ellipse;whiteSpace=wrap;html=1;align=center;strokeWidth=3;fontSize=16;fontStyle=1" vertex="1" parent="1">
          <mxGeometry x="520" y="940" width="100" height="40" as="geometry" />
        </mxCell>
        <mxCell id="nU3mczTMjZ2SQ8L4C_dF-45" value="Volumen" style="ellipse;whiteSpace=wrap;html=1;align=center;strokeWidth=3;fontSize=16;fontStyle=1" vertex="1" parent="1">
          <mxGeometry x="590" y="1010" width="100" height="40" as="geometry" />
        </mxCell>
        <mxCell id="nU3mczTMjZ2SQ8L4C_dF-53" value="Número" style="ellipse;whiteSpace=wrap;html=1;align=center;strokeWidth=3;fontSize=16;fontStyle=1" vertex="1" parent="1">
          <mxGeometry x="620" y="1110" width="100" height="40" as="geometry" />
        </mxCell>
        <mxCell id="nU3mczTMjZ2SQ8L4C_dF-54" value="Mes" style="ellipse;whiteSpace=wrap;html=1;align=center;strokeWidth=3;fontSize=16;fontStyle=1" vertex="1" parent="1">
          <mxGeometry x="570" y="1180" width="100" height="40" as="geometry" />
        </mxCell>
        <mxCell id="nU3mczTMjZ2SQ8L4C_dF-55" value="Año" style="ellipse;whiteSpace=wrap;html=1;align=center;strokeWidth=3;fontSize=16;fontStyle=1" vertex="1" parent="1">
          <mxGeometry x="490" y="1240" width="100" height="40" as="geometry" />
        </mxCell>
        <mxCell id="nU3mczTMjZ2SQ8L4C_dF-65" value="" style="endArrow=none;html=1;rounded=0;entryX=0;entryY=0.5;entryDx=0;entryDy=0;strokeColor=default;strokeWidth=3;align=center;verticalAlign=middle;fontFamily=Helvetica;fontSize=16;fontColor=default;labelBackgroundColor=default;startArrow=none;startFill=0;endFill=0;exitX=0.25;exitY=0;exitDx=0;exitDy=0;" edge="1" parent="1" source="nU3mczTMjZ2SQ8L4C_dF-43" target="nU3mczTMjZ2SQ8L4C_dF-44">
          <mxGeometry width="50" height="50" relative="1" as="geometry">
            <mxPoint x="420" y="1140" as="sourcePoint" />
            <mxPoint x="420" y="980" as="targetPoint" />
          </mxGeometry>
        </mxCell>
        <mxCell id="nU3mczTMjZ2SQ8L4C_dF-66" value="" style="endArrow=none;html=1;rounded=0;entryX=0;entryY=0.5;entryDx=0;entryDy=0;exitX=0.5;exitY=0;exitDx=0;exitDy=0;strokeColor=default;strokeWidth=3;align=center;verticalAlign=middle;fontFamily=Helvetica;fontSize=16;fontColor=default;labelBackgroundColor=default;startArrow=none;startFill=0;endFill=0;" edge="1" parent="1" source="nU3mczTMjZ2SQ8L4C_dF-43" target="nU3mczTMjZ2SQ8L4C_dF-45">
          <mxGeometry width="50" height="50" relative="1" as="geometry">
            <mxPoint x="410" y="1150" as="sourcePoint" />
            <mxPoint x="530" y="970" as="targetPoint" />
          </mxGeometry>
        </mxCell>
        <mxCell id="nU3mczTMjZ2SQ8L4C_dF-67" value="" style="endArrow=none;html=1;rounded=0;entryX=0;entryY=0;entryDx=0;entryDy=0;exitX=1;exitY=0.5;exitDx=0;exitDy=0;strokeColor=default;strokeWidth=3;align=center;verticalAlign=middle;fontFamily=Helvetica;fontSize=16;fontColor=default;labelBackgroundColor=default;startArrow=none;startFill=0;endFill=0;" edge="1" parent="1" source="nU3mczTMjZ2SQ8L4C_dF-43" target="nU3mczTMjZ2SQ8L4C_dF-53">
          <mxGeometry width="50" height="50" relative="1" as="geometry">
            <mxPoint x="470" y="1150" as="sourcePoint" />
            <mxPoint x="540" y="980" as="targetPoint" />
          </mxGeometry>
        </mxCell>
        <mxCell id="nU3mczTMjZ2SQ8L4C_dF-68" value="" style="endArrow=none;html=1;rounded=0;entryX=0;entryY=0;entryDx=0;entryDy=0;exitX=1;exitY=1;exitDx=0;exitDy=0;strokeColor=default;strokeWidth=3;align=center;verticalAlign=middle;fontFamily=Helvetica;fontSize=16;fontColor=default;labelBackgroundColor=default;startArrow=none;startFill=0;endFill=0;" edge="1" parent="1" source="nU3mczTMjZ2SQ8L4C_dF-43" target="nU3mczTMjZ2SQ8L4C_dF-54">
          <mxGeometry width="50" height="50" relative="1" as="geometry">
            <mxPoint x="450" y="1320" as="sourcePoint" />
            <mxPoint x="570" y="1140" as="targetPoint" />
          </mxGeometry>
        </mxCell>
        <mxCell id="nU3mczTMjZ2SQ8L4C_dF-69" value="" style="endArrow=none;html=1;rounded=0;entryX=0;entryY=0;entryDx=0;entryDy=0;exitX=0.5;exitY=1;exitDx=0;exitDy=0;strokeColor=default;strokeWidth=3;align=center;verticalAlign=middle;fontFamily=Helvetica;fontSize=16;fontColor=default;labelBackgroundColor=default;startArrow=none;startFill=0;endFill=0;" edge="1" parent="1" source="nU3mczTMjZ2SQ8L4C_dF-43" target="nU3mczTMjZ2SQ8L4C_dF-55">
          <mxGeometry width="50" height="50" relative="1" as="geometry">
            <mxPoint x="440" y="1180" as="sourcePoint" />
            <mxPoint x="560" y="1000" as="targetPoint" />
          </mxGeometry>
        </mxCell>
      </root>
    </mxGraphModel>
  </diagram>
</mxfile>
